<mxfile host="app.diagrams.net" agent="Mozilla/5.0 (Windows NT 10.0; Win64; x64) AppleWebKit/537.36 (KHTML, like Gecko) Chrome/132.0.0.0 Safari/537.36" version="26.0.11">
  <diagram name="Page-1" id="vnbQvoCOIr6rev8CdeXU">
    <mxGraphModel dx="5250" dy="2610" grid="1" gridSize="10" guides="1" tooltips="1" connect="1" arrows="1" fold="1" page="1" pageScale="1" pageWidth="850" pageHeight="1100" math="0" shadow="0">
      <root>
        <mxCell id="0" />
        <mxCell id="1" parent="0" />
        <mxCell id="ffsXN4SnScIQA86dBzkv-1" value="Navigate to Manage Forms" style="whiteSpace=wrap;strokeWidth=2;" vertex="1" parent="1">
          <mxGeometry x="513" y="20" width="249" height="54" as="geometry" />
        </mxCell>
        <mxCell id="ffsXN4SnScIQA86dBzkv-2" value="Display All Registration/Signup Forms" style="whiteSpace=wrap;strokeWidth=2;" vertex="1" parent="1">
          <mxGeometry x="508" y="124" width="260" height="78" as="geometry" />
        </mxCell>
        <mxCell id="ffsXN4SnScIQA86dBzkv-3" value="Display Other Forms: Login, Forgot Password, Change Password" style="whiteSpace=wrap;strokeWidth=2;" vertex="1" parent="1">
          <mxGeometry x="508" y="252" width="260" height="102" as="geometry" />
        </mxCell>
        <mxCell id="ffsXN4SnScIQA86dBzkv-4" value="Display Edit Profile Forms" style="whiteSpace=wrap;strokeWidth=2;" vertex="1" parent="1">
          <mxGeometry x="516" y="404" width="244" height="54" as="geometry" />
        </mxCell>
        <mxCell id="ffsXN4SnScIQA86dBzkv-5" value="Click &#39;Add New Registration Form&#39;" style="whiteSpace=wrap;strokeWidth=2;" vertex="1" parent="1">
          <mxGeometry x="508" y="508" width="260" height="78" as="geometry" />
        </mxCell>
        <mxCell id="ffsXN4SnScIQA86dBzkv-6" value="Show Pop-Up to Select Existing Form to Clone" style="whiteSpace=wrap;strokeWidth=2;" vertex="1" parent="1">
          <mxGeometry x="508" y="636" width="260" height="78" as="geometry" />
        </mxCell>
        <mxCell id="ffsXN4SnScIQA86dBzkv-7" value="Dropdown with All Existing Registration Forms" style="whiteSpace=wrap;strokeWidth=2;" vertex="1" parent="1">
          <mxGeometry x="508" y="764" width="260" height="78" as="geometry" />
        </mxCell>
        <mxCell id="ffsXN4SnScIQA86dBzkv-8" value="Select Form &amp; Click Clone" style="whiteSpace=wrap;strokeWidth=2;" vertex="1" parent="1">
          <mxGeometry x="514" y="892" width="246" height="54" as="geometry" />
        </mxCell>
        <mxCell id="ffsXN4SnScIQA86dBzkv-9" value="Clone Form with Fields, Styling &amp; Other Settings" style="whiteSpace=wrap;strokeWidth=2;" vertex="1" parent="1">
          <mxGeometry x="508" y="996" width="260" height="78" as="geometry" />
        </mxCell>
        <mxCell id="ffsXN4SnScIQA86dBzkv-10" value="Open Live Form Editor" style="whiteSpace=wrap;strokeWidth=2;" vertex="1" parent="1">
          <mxGeometry x="527" y="1124" width="221" height="54" as="geometry" />
        </mxCell>
        <mxCell id="ffsXN4SnScIQA86dBzkv-11" value="Left Side: Display Presets" style="whiteSpace=wrap;strokeWidth=2;" vertex="1" parent="1">
          <mxGeometry x="38" y="2098" width="241" height="54" as="geometry" />
        </mxCell>
        <mxCell id="ffsXN4SnScIQA86dBzkv-12" value="Is &#39;Template&#39; Selected in Pop-Up?" style="rhombus;strokeWidth=2;whiteSpace=wrap;" vertex="1" parent="1">
          <mxGeometry x="20" y="2337" width="278" height="278" as="geometry" />
        </mxCell>
        <mxCell id="ffsXN4SnScIQA86dBzkv-13" value="Display Template &amp; Allow Selecting Existing Fields" style="whiteSpace=wrap;strokeWidth=2;" vertex="1" parent="1">
          <mxGeometry x="29" y="2787" width="260" height="78" as="geometry" />
        </mxCell>
        <mxCell id="ffsXN4SnScIQA86dBzkv-14" value="On Add, Selected Fields &amp; Styling Applied" style="whiteSpace=wrap;strokeWidth=2;" vertex="1" parent="1">
          <mxGeometry x="29" y="3062" width="260" height="78" as="geometry" />
        </mxCell>
        <mxCell id="ffsXN4SnScIQA86dBzkv-15" value="Click Save - Save Form with All Settings" style="whiteSpace=wrap;strokeWidth=2;" vertex="1" parent="1">
          <mxGeometry x="986" y="3214" width="260" height="78" as="geometry" />
        </mxCell>
        <mxCell id="ffsXN4SnScIQA86dBzkv-16" value="Live Editor: Display Preset Fields" style="whiteSpace=wrap;strokeWidth=2;" vertex="1" parent="1">
          <mxGeometry x="348" y="1730" width="260" height="78" as="geometry" />
        </mxCell>
        <mxCell id="ffsXN4SnScIQA86dBzkv-17" value="Left Side: Display All Existing Fields" style="whiteSpace=wrap;strokeWidth=2;" vertex="1" parent="1">
          <mxGeometry x="348" y="1858" width="260" height="78" as="geometry" />
        </mxCell>
        <mxCell id="ffsXN4SnScIQA86dBzkv-18" value="Left Side: Display Form Fields Input, Textarea, Date, etc." style="whiteSpace=wrap;strokeWidth=2;" vertex="1" parent="1">
          <mxGeometry x="348" y="2074" width="260" height="102" as="geometry" />
        </mxCell>
        <mxCell id="ffsXN4SnScIQA86dBzkv-19" value="Click Form Field to Add to Form" style="whiteSpace=wrap;strokeWidth=2;" vertex="1" parent="1">
          <mxGeometry x="348" y="2437" width="260" height="78" as="geometry" />
        </mxCell>
        <mxCell id="ffsXN4SnScIQA86dBzkv-20" value="Hover Field &amp; Click Settings Icon" style="whiteSpace=wrap;strokeWidth=2;" vertex="1" parent="1">
          <mxGeometry x="348" y="2787" width="260" height="78" as="geometry" />
        </mxCell>
        <mxCell id="ffsXN4SnScIQA86dBzkv-21" value="Set Field Properties: Name, Description, Placeholder, Meta Key, Restrictions" style="whiteSpace=wrap;strokeWidth=2;" vertex="1" parent="1">
          <mxGeometry x="348" y="3038" width="260" height="126" as="geometry" />
        </mxCell>
        <mxCell id="ffsXN4SnScIQA86dBzkv-22" value="Is Social Feature Addon Active?" style="rhombus;strokeWidth=2;whiteSpace=wrap;" vertex="1" parent="1">
          <mxGeometry x="658" y="1986" width="278" height="278" as="geometry" />
        </mxCell>
        <mxCell id="ffsXN4SnScIQA86dBzkv-23" value="Show &#39;Social Profile Fields&#39; Button" style="whiteSpace=wrap;strokeWidth=2;" vertex="1" parent="1">
          <mxGeometry x="667" y="2437" width="260" height="78" as="geometry" />
        </mxCell>
        <mxCell id="ffsXN4SnScIQA86dBzkv-24" value="On Click, Display Fields: Facebook, Instagram, etc." style="whiteSpace=wrap;strokeWidth=2;" vertex="1" parent="1">
          <mxGeometry x="667" y="2787" width="260" height="78" as="geometry" />
        </mxCell>
        <mxCell id="ffsXN4SnScIQA86dBzkv-25" value="On Add, Social Fields Appear Below Other Fields" style="whiteSpace=wrap;strokeWidth=2;" vertex="1" parent="1">
          <mxGeometry x="667" y="3062" width="260" height="78" as="geometry" />
        </mxCell>
        <mxCell id="ffsXN4SnScIQA86dBzkv-26" value="Right Side: Display Basic Form Styling &amp; Formatting Options" style="whiteSpace=wrap;strokeWidth=2;" vertex="1" parent="1">
          <mxGeometry x="1591" y="1228" width="260" height="102" as="geometry" />
        </mxCell>
        <mxCell id="ffsXN4SnScIQA86dBzkv-27" value="Option to Enable Google reCAPTCHA v3" style="whiteSpace=wrap;strokeWidth=2;" vertex="1" parent="1">
          <mxGeometry x="986" y="2437" width="260" height="78" as="geometry" />
        </mxCell>
        <mxCell id="ffsXN4SnScIQA86dBzkv-28" value="Is reCAPTCHA Key Set in General Settings?" style="rhombus;strokeWidth=2;whiteSpace=wrap;" vertex="1" parent="1">
          <mxGeometry x="977" y="2687" width="278" height="278" as="geometry" />
        </mxCell>
        <mxCell id="ffsXN4SnScIQA86dBzkv-29" value="Allow Enabling Google reCAPTCHA" style="whiteSpace=wrap;strokeWidth=2;" vertex="1" parent="1">
          <mxGeometry x="986" y="3062" width="260" height="78" as="geometry" />
        </mxCell>
        <mxCell id="ffsXN4SnScIQA86dBzkv-30" value="Switch: Display Login Link" style="whiteSpace=wrap;strokeWidth=2;" vertex="1" parent="1">
          <mxGeometry x="1451" y="2799" width="246" height="54" as="geometry" />
        </mxCell>
        <mxCell id="ffsXN4SnScIQA86dBzkv-31" value="Show Login Link Above Submit Button" style="whiteSpace=wrap;strokeWidth=2;" vertex="1" parent="1">
          <mxGeometry x="1297" y="3062" width="260" height="78" as="geometry" />
        </mxCell>
        <mxCell id="ffsXN4SnScIQA86dBzkv-32" value="Do Not Show Login Link" style="whiteSpace=wrap;strokeWidth=2;" vertex="1" parent="1">
          <mxGeometry x="1607" y="3074" width="227" height="54" as="geometry" />
        </mxCell>
        <mxCell id="ffsXN4SnScIQA86dBzkv-33" value="Enable Hidden Fields" style="whiteSpace=wrap;strokeWidth=2;" vertex="1" parent="1">
          <mxGeometry x="1909" y="2799" width="210" height="54" as="geometry" />
        </mxCell>
        <mxCell id="ffsXN4SnScIQA86dBzkv-34" value="Create Hidden Field &amp; Set Value" style="whiteSpace=wrap;strokeWidth=2;" vertex="1" parent="1">
          <mxGeometry x="1884" y="3062" width="260" height="78" as="geometry" />
        </mxCell>
        <mxCell id="ffsXN4SnScIQA86dBzkv-35" value="Is Any Opt-in Addon Active e.g., ActiveCampaign?" style="rhombus;strokeWidth=2;whiteSpace=wrap;" vertex="1" parent="1">
          <mxGeometry x="2185" y="1380" width="278" height="278" as="geometry" />
        </mxCell>
        <mxCell id="ffsXN4SnScIQA86dBzkv-36" value="Show Opt-in Section" style="whiteSpace=wrap;strokeWidth=2;" vertex="1" parent="1">
          <mxGeometry x="2222" y="1742" width="204" height="54" as="geometry" />
        </mxCell>
        <mxCell id="ffsXN4SnScIQA86dBzkv-37" value="Display All Configured Opt-in Options" style="whiteSpace=wrap;strokeWidth=2;" vertex="1" parent="1">
          <mxGeometry x="2194" y="1858" width="260" height="78" as="geometry" />
        </mxCell>
        <mxCell id="ffsXN4SnScIQA86dBzkv-38" value="Select List to Add Member on Registration" style="whiteSpace=wrap;strokeWidth=2;" vertex="1" parent="1">
          <mxGeometry x="2194" y="2086" width="260" height="78" as="geometry" />
        </mxCell>
        <mxCell id="ffsXN4SnScIQA86dBzkv-39" value="Enable Conditional Subscription" style="whiteSpace=wrap;strokeWidth=2;" vertex="1" parent="1">
          <mxGeometry x="2194" y="2437" width="260" height="78" as="geometry" />
        </mxCell>
        <mxCell id="ffsXN4SnScIQA86dBzkv-40" value="Reveal Fields to Set Conditions" style="whiteSpace=wrap;strokeWidth=2;" vertex="1" parent="1">
          <mxGeometry x="2194" y="2787" width="260" height="78" as="geometry" />
        </mxCell>
        <mxCell id="ffsXN4SnScIQA86dBzkv-41" value="If Condition Satisfied, Add Member to Opt-in List" style="whiteSpace=wrap;strokeWidth=2;" vertex="1" parent="1">
          <mxGeometry x="2194" y="3062" width="260" height="78" as="geometry" />
        </mxCell>
        <mxCell id="ffsXN4SnScIQA86dBzkv-42" value="" style="curved=1;startArrow=none;endArrow=block;exitX=0.5;exitY=1;entryX=0.5;entryY=0;rounded=0;" edge="1" parent="1" source="ffsXN4SnScIQA86dBzkv-1" target="ffsXN4SnScIQA86dBzkv-2">
          <mxGeometry relative="1" as="geometry">
            <Array as="points" />
          </mxGeometry>
        </mxCell>
        <mxCell id="ffsXN4SnScIQA86dBzkv-43" value="" style="curved=1;startArrow=none;endArrow=block;exitX=0.5;exitY=1;entryX=0.5;entryY=0;rounded=0;" edge="1" parent="1" source="ffsXN4SnScIQA86dBzkv-2" target="ffsXN4SnScIQA86dBzkv-3">
          <mxGeometry relative="1" as="geometry">
            <Array as="points" />
          </mxGeometry>
        </mxCell>
        <mxCell id="ffsXN4SnScIQA86dBzkv-44" value="" style="curved=1;startArrow=none;endArrow=block;exitX=0.5;exitY=1;entryX=0.5;entryY=0;rounded=0;" edge="1" parent="1" source="ffsXN4SnScIQA86dBzkv-3" target="ffsXN4SnScIQA86dBzkv-4">
          <mxGeometry relative="1" as="geometry">
            <Array as="points" />
          </mxGeometry>
        </mxCell>
        <mxCell id="ffsXN4SnScIQA86dBzkv-45" value="" style="curved=1;startArrow=none;endArrow=block;exitX=0.5;exitY=1;entryX=0.5;entryY=0;rounded=0;" edge="1" parent="1" source="ffsXN4SnScIQA86dBzkv-4" target="ffsXN4SnScIQA86dBzkv-5">
          <mxGeometry relative="1" as="geometry">
            <Array as="points" />
          </mxGeometry>
        </mxCell>
        <mxCell id="ffsXN4SnScIQA86dBzkv-46" value="" style="curved=1;startArrow=none;endArrow=block;exitX=0.5;exitY=1;entryX=0.5;entryY=0;rounded=0;" edge="1" parent="1" source="ffsXN4SnScIQA86dBzkv-5" target="ffsXN4SnScIQA86dBzkv-6">
          <mxGeometry relative="1" as="geometry">
            <Array as="points" />
          </mxGeometry>
        </mxCell>
        <mxCell id="ffsXN4SnScIQA86dBzkv-47" value="" style="curved=1;startArrow=none;endArrow=block;exitX=0.5;exitY=1;entryX=0.5;entryY=0;rounded=0;" edge="1" parent="1" source="ffsXN4SnScIQA86dBzkv-6" target="ffsXN4SnScIQA86dBzkv-7">
          <mxGeometry relative="1" as="geometry">
            <Array as="points" />
          </mxGeometry>
        </mxCell>
        <mxCell id="ffsXN4SnScIQA86dBzkv-48" value="" style="curved=1;startArrow=none;endArrow=block;exitX=0.5;exitY=1;entryX=0.5;entryY=0;rounded=0;" edge="1" parent="1" source="ffsXN4SnScIQA86dBzkv-7" target="ffsXN4SnScIQA86dBzkv-8">
          <mxGeometry relative="1" as="geometry">
            <Array as="points" />
          </mxGeometry>
        </mxCell>
        <mxCell id="ffsXN4SnScIQA86dBzkv-49" value="" style="curved=1;startArrow=none;endArrow=block;exitX=0.5;exitY=1;entryX=0.5;entryY=0;rounded=0;" edge="1" parent="1" source="ffsXN4SnScIQA86dBzkv-8" target="ffsXN4SnScIQA86dBzkv-9">
          <mxGeometry relative="1" as="geometry">
            <Array as="points" />
          </mxGeometry>
        </mxCell>
        <mxCell id="ffsXN4SnScIQA86dBzkv-50" value="" style="curved=1;startArrow=none;endArrow=block;exitX=0.5;exitY=1;entryX=0.5;entryY=0;rounded=0;" edge="1" parent="1" source="ffsXN4SnScIQA86dBzkv-9" target="ffsXN4SnScIQA86dBzkv-10">
          <mxGeometry relative="1" as="geometry">
            <Array as="points" />
          </mxGeometry>
        </mxCell>
        <mxCell id="ffsXN4SnScIQA86dBzkv-51" value="" style="curved=1;startArrow=none;endArrow=block;exitX=0;exitY=0.72;entryX=0.5;entryY=0.01;rounded=0;" edge="1" parent="1" source="ffsXN4SnScIQA86dBzkv-10" target="ffsXN4SnScIQA86dBzkv-11">
          <mxGeometry relative="1" as="geometry">
            <Array as="points">
              <mxPoint x="159" y="1203" />
            </Array>
          </mxGeometry>
        </mxCell>
        <mxCell id="ffsXN4SnScIQA86dBzkv-52" value="" style="curved=1;startArrow=none;endArrow=block;exitX=0.5;exitY=1.01;entryX=0.5;entryY=0;rounded=0;" edge="1" parent="1" source="ffsXN4SnScIQA86dBzkv-11" target="ffsXN4SnScIQA86dBzkv-12">
          <mxGeometry relative="1" as="geometry">
            <Array as="points" />
          </mxGeometry>
        </mxCell>
        <mxCell id="ffsXN4SnScIQA86dBzkv-53" value="Yes" style="curved=1;startArrow=none;endArrow=block;exitX=0.5;exitY=1;entryX=0.5;entryY=0;rounded=0;" edge="1" parent="1" source="ffsXN4SnScIQA86dBzkv-12" target="ffsXN4SnScIQA86dBzkv-13">
          <mxGeometry relative="1" as="geometry">
            <Array as="points" />
          </mxGeometry>
        </mxCell>
        <mxCell id="ffsXN4SnScIQA86dBzkv-54" value="" style="curved=1;startArrow=none;endArrow=block;exitX=0.5;exitY=1;entryX=0.5;entryY=-0.01;rounded=0;" edge="1" parent="1" source="ffsXN4SnScIQA86dBzkv-13" target="ffsXN4SnScIQA86dBzkv-14">
          <mxGeometry relative="1" as="geometry">
            <Array as="points" />
          </mxGeometry>
        </mxCell>
        <mxCell id="ffsXN4SnScIQA86dBzkv-55" value="" style="curved=1;startArrow=none;endArrow=block;exitX=0.5;exitY=0.99;entryX=0;entryY=0.38;rounded=0;" edge="1" parent="1" source="ffsXN4SnScIQA86dBzkv-14" target="ffsXN4SnScIQA86dBzkv-15">
          <mxGeometry relative="1" as="geometry">
            <Array as="points">
              <mxPoint x="159" y="3189" />
            </Array>
          </mxGeometry>
        </mxCell>
        <mxCell id="ffsXN4SnScIQA86dBzkv-56" value="" style="curved=1;startArrow=none;endArrow=block;exitX=0.13;exitY=1;entryX=0.5;entryY=0.01;rounded=0;" edge="1" parent="1" source="ffsXN4SnScIQA86dBzkv-10" target="ffsXN4SnScIQA86dBzkv-16">
          <mxGeometry relative="1" as="geometry">
            <Array as="points">
              <mxPoint x="478" y="1203" />
            </Array>
          </mxGeometry>
        </mxCell>
        <mxCell id="ffsXN4SnScIQA86dBzkv-57" value="" style="curved=1;startArrow=none;endArrow=block;exitX=0.5;exitY=1.01;entryX=0.5;entryY=0.01;rounded=0;" edge="1" parent="1" source="ffsXN4SnScIQA86dBzkv-16" target="ffsXN4SnScIQA86dBzkv-17">
          <mxGeometry relative="1" as="geometry">
            <Array as="points" />
          </mxGeometry>
        </mxCell>
        <mxCell id="ffsXN4SnScIQA86dBzkv-58" value="" style="curved=1;startArrow=none;endArrow=block;exitX=0.5;exitY=1.01;entryX=0.5;entryY=0;rounded=0;" edge="1" parent="1" source="ffsXN4SnScIQA86dBzkv-17" target="ffsXN4SnScIQA86dBzkv-18">
          <mxGeometry relative="1" as="geometry">
            <Array as="points" />
          </mxGeometry>
        </mxCell>
        <mxCell id="ffsXN4SnScIQA86dBzkv-59" value="" style="curved=1;startArrow=none;endArrow=block;exitX=0.5;exitY=1;entryX=0.5;entryY=0;rounded=0;" edge="1" parent="1" source="ffsXN4SnScIQA86dBzkv-18" target="ffsXN4SnScIQA86dBzkv-19">
          <mxGeometry relative="1" as="geometry">
            <Array as="points" />
          </mxGeometry>
        </mxCell>
        <mxCell id="ffsXN4SnScIQA86dBzkv-60" value="" style="curved=1;startArrow=none;endArrow=block;exitX=0.5;exitY=1;entryX=0.5;entryY=0;rounded=0;" edge="1" parent="1" source="ffsXN4SnScIQA86dBzkv-19" target="ffsXN4SnScIQA86dBzkv-20">
          <mxGeometry relative="1" as="geometry">
            <Array as="points" />
          </mxGeometry>
        </mxCell>
        <mxCell id="ffsXN4SnScIQA86dBzkv-61" value="" style="curved=1;startArrow=none;endArrow=block;exitX=0.5;exitY=1;entryX=0.5;entryY=0;rounded=0;" edge="1" parent="1" source="ffsXN4SnScIQA86dBzkv-20" target="ffsXN4SnScIQA86dBzkv-21">
          <mxGeometry relative="1" as="geometry">
            <Array as="points" />
          </mxGeometry>
        </mxCell>
        <mxCell id="ffsXN4SnScIQA86dBzkv-62" value="" style="curved=1;startArrow=none;endArrow=block;exitX=0.5;exitY=1;entryX=0;entryY=0.33;rounded=0;" edge="1" parent="1" source="ffsXN4SnScIQA86dBzkv-21" target="ffsXN4SnScIQA86dBzkv-15">
          <mxGeometry relative="1" as="geometry">
            <Array as="points">
              <mxPoint x="478" y="3189" />
            </Array>
          </mxGeometry>
        </mxCell>
        <mxCell id="ffsXN4SnScIQA86dBzkv-63" value="" style="curved=1;startArrow=none;endArrow=block;exitX=0.87;exitY=1;entryX=0.5;entryY=0;rounded=0;" edge="1" parent="1" source="ffsXN4SnScIQA86dBzkv-10" target="ffsXN4SnScIQA86dBzkv-22">
          <mxGeometry relative="1" as="geometry">
            <Array as="points">
              <mxPoint x="797" y="1203" />
            </Array>
          </mxGeometry>
        </mxCell>
        <mxCell id="ffsXN4SnScIQA86dBzkv-64" value="Yes" style="curved=1;startArrow=none;endArrow=block;exitX=0.5;exitY=1;entryX=0.5;entryY=0;rounded=0;" edge="1" parent="1" source="ffsXN4SnScIQA86dBzkv-22" target="ffsXN4SnScIQA86dBzkv-23">
          <mxGeometry relative="1" as="geometry">
            <Array as="points" />
          </mxGeometry>
        </mxCell>
        <mxCell id="ffsXN4SnScIQA86dBzkv-65" value="" style="curved=1;startArrow=none;endArrow=block;exitX=0.5;exitY=1;entryX=0.5;entryY=0;rounded=0;" edge="1" parent="1" source="ffsXN4SnScIQA86dBzkv-23" target="ffsXN4SnScIQA86dBzkv-24">
          <mxGeometry relative="1" as="geometry">
            <Array as="points" />
          </mxGeometry>
        </mxCell>
        <mxCell id="ffsXN4SnScIQA86dBzkv-66" value="" style="curved=1;startArrow=none;endArrow=block;exitX=0.5;exitY=1;entryX=0.5;entryY=-0.01;rounded=0;" edge="1" parent="1" source="ffsXN4SnScIQA86dBzkv-24" target="ffsXN4SnScIQA86dBzkv-25">
          <mxGeometry relative="1" as="geometry">
            <Array as="points" />
          </mxGeometry>
        </mxCell>
        <mxCell id="ffsXN4SnScIQA86dBzkv-67" value="" style="curved=1;startArrow=none;endArrow=block;exitX=0.5;exitY=0.99;entryX=0;entryY=0.16;rounded=0;" edge="1" parent="1" source="ffsXN4SnScIQA86dBzkv-25" target="ffsXN4SnScIQA86dBzkv-15">
          <mxGeometry relative="1" as="geometry">
            <Array as="points">
              <mxPoint x="797" y="3189" />
            </Array>
          </mxGeometry>
        </mxCell>
        <mxCell id="ffsXN4SnScIQA86dBzkv-68" value="" style="curved=1;startArrow=none;endArrow=block;exitX=1;exitY=0.6;entryX=0.5;entryY=0;rounded=0;" edge="1" parent="1" source="ffsXN4SnScIQA86dBzkv-10" target="ffsXN4SnScIQA86dBzkv-26">
          <mxGeometry relative="1" as="geometry">
            <Array as="points">
              <mxPoint x="1721" y="1203" />
            </Array>
          </mxGeometry>
        </mxCell>
        <mxCell id="ffsXN4SnScIQA86dBzkv-69" value="" style="curved=1;startArrow=none;endArrow=block;exitX=0;exitY=0.66;entryX=0.5;entryY=0;rounded=0;" edge="1" parent="1" source="ffsXN4SnScIQA86dBzkv-26" target="ffsXN4SnScIQA86dBzkv-27">
          <mxGeometry relative="1" as="geometry">
            <Array as="points">
              <mxPoint x="1116" y="1355" />
            </Array>
          </mxGeometry>
        </mxCell>
        <mxCell id="ffsXN4SnScIQA86dBzkv-70" value="" style="curved=1;startArrow=none;endArrow=block;exitX=0.5;exitY=1;entryX=0.5;entryY=0;rounded=0;" edge="1" parent="1" source="ffsXN4SnScIQA86dBzkv-27" target="ffsXN4SnScIQA86dBzkv-28">
          <mxGeometry relative="1" as="geometry">
            <Array as="points" />
          </mxGeometry>
        </mxCell>
        <mxCell id="ffsXN4SnScIQA86dBzkv-71" value="Yes" style="curved=1;startArrow=none;endArrow=block;exitX=0.5;exitY=1;entryX=0.5;entryY=-0.01;rounded=0;" edge="1" parent="1" source="ffsXN4SnScIQA86dBzkv-28" target="ffsXN4SnScIQA86dBzkv-29">
          <mxGeometry relative="1" as="geometry">
            <Array as="points" />
          </mxGeometry>
        </mxCell>
        <mxCell id="ffsXN4SnScIQA86dBzkv-72" value="" style="curved=1;startArrow=none;endArrow=block;exitX=0.5;exitY=0.99;entryX=0.5;entryY=-0.01;rounded=0;" edge="1" parent="1" source="ffsXN4SnScIQA86dBzkv-29" target="ffsXN4SnScIQA86dBzkv-15">
          <mxGeometry relative="1" as="geometry">
            <Array as="points" />
          </mxGeometry>
        </mxCell>
        <mxCell id="ffsXN4SnScIQA86dBzkv-73" value="" style="curved=1;startArrow=none;endArrow=block;exitX=0.12;exitY=1;entryX=0.5;entryY=0;rounded=0;" edge="1" parent="1" source="ffsXN4SnScIQA86dBzkv-26" target="ffsXN4SnScIQA86dBzkv-30">
          <mxGeometry relative="1" as="geometry">
            <Array as="points">
              <mxPoint x="1574" y="1355" />
            </Array>
          </mxGeometry>
        </mxCell>
        <mxCell id="ffsXN4SnScIQA86dBzkv-74" value="Enabled" style="curved=1;startArrow=none;endArrow=block;exitX=0.41;exitY=1;entryX=0.5;entryY=-0.01;rounded=0;" edge="1" parent="1" source="ffsXN4SnScIQA86dBzkv-30" target="ffsXN4SnScIQA86dBzkv-31">
          <mxGeometry relative="1" as="geometry">
            <Array as="points">
              <mxPoint x="1427" y="3001" />
            </Array>
          </mxGeometry>
        </mxCell>
        <mxCell id="ffsXN4SnScIQA86dBzkv-75" value="Disabled" style="curved=1;startArrow=none;endArrow=block;exitX=0.59;exitY=1;entryX=0.5;entryY=-0.01;rounded=0;" edge="1" parent="1" source="ffsXN4SnScIQA86dBzkv-30" target="ffsXN4SnScIQA86dBzkv-32">
          <mxGeometry relative="1" as="geometry">
            <Array as="points">
              <mxPoint x="1721" y="3001" />
            </Array>
          </mxGeometry>
        </mxCell>
        <mxCell id="ffsXN4SnScIQA86dBzkv-76" value="" style="curved=1;startArrow=none;endArrow=block;exitX=0.5;exitY=0.99;entryX=1;entryY=0.32;rounded=0;" edge="1" parent="1" source="ffsXN4SnScIQA86dBzkv-32" target="ffsXN4SnScIQA86dBzkv-15">
          <mxGeometry relative="1" as="geometry">
            <Array as="points">
              <mxPoint x="1721" y="3189" />
            </Array>
          </mxGeometry>
        </mxCell>
        <mxCell id="ffsXN4SnScIQA86dBzkv-77" value="" style="curved=1;startArrow=none;endArrow=block;exitX=1;exitY=0.83;entryX=0.5;entryY=0;rounded=0;" edge="1" parent="1" source="ffsXN4SnScIQA86dBzkv-26" target="ffsXN4SnScIQA86dBzkv-33">
          <mxGeometry relative="1" as="geometry">
            <Array as="points">
              <mxPoint x="2014" y="1355" />
            </Array>
          </mxGeometry>
        </mxCell>
        <mxCell id="ffsXN4SnScIQA86dBzkv-78" value="" style="curved=1;startArrow=none;endArrow=block;exitX=0.5;exitY=1;entryX=0.5;entryY=-0.01;rounded=0;" edge="1" parent="1" source="ffsXN4SnScIQA86dBzkv-33" target="ffsXN4SnScIQA86dBzkv-34">
          <mxGeometry relative="1" as="geometry">
            <Array as="points" />
          </mxGeometry>
        </mxCell>
        <mxCell id="ffsXN4SnScIQA86dBzkv-79" value="" style="curved=1;startArrow=none;endArrow=block;exitX=0.5;exitY=0.99;entryX=1;entryY=0.38;rounded=0;" edge="1" parent="1" source="ffsXN4SnScIQA86dBzkv-34" target="ffsXN4SnScIQA86dBzkv-15">
          <mxGeometry relative="1" as="geometry">
            <Array as="points">
              <mxPoint x="2014" y="3189" />
            </Array>
          </mxGeometry>
        </mxCell>
        <mxCell id="ffsXN4SnScIQA86dBzkv-80" value="" style="curved=1;startArrow=none;endArrow=block;exitX=1;exitY=0.66;entryX=0.5;entryY=0;rounded=0;" edge="1" parent="1" source="ffsXN4SnScIQA86dBzkv-26" target="ffsXN4SnScIQA86dBzkv-35">
          <mxGeometry relative="1" as="geometry">
            <Array as="points">
              <mxPoint x="2324" y="1355" />
            </Array>
          </mxGeometry>
        </mxCell>
        <mxCell id="ffsXN4SnScIQA86dBzkv-81" value="Yes" style="curved=1;startArrow=none;endArrow=block;exitX=0.5;exitY=1;entryX=0.5;entryY=0.01;rounded=0;" edge="1" parent="1" source="ffsXN4SnScIQA86dBzkv-35" target="ffsXN4SnScIQA86dBzkv-36">
          <mxGeometry relative="1" as="geometry">
            <Array as="points" />
          </mxGeometry>
        </mxCell>
        <mxCell id="ffsXN4SnScIQA86dBzkv-82" value="" style="curved=1;startArrow=none;endArrow=block;exitX=0.5;exitY=1.01;entryX=0.5;entryY=0.01;rounded=0;" edge="1" parent="1" source="ffsXN4SnScIQA86dBzkv-36" target="ffsXN4SnScIQA86dBzkv-37">
          <mxGeometry relative="1" as="geometry">
            <Array as="points" />
          </mxGeometry>
        </mxCell>
        <mxCell id="ffsXN4SnScIQA86dBzkv-83" value="" style="curved=1;startArrow=none;endArrow=block;exitX=0.5;exitY=1.01;entryX=0.5;entryY=0.01;rounded=0;" edge="1" parent="1" source="ffsXN4SnScIQA86dBzkv-37" target="ffsXN4SnScIQA86dBzkv-38">
          <mxGeometry relative="1" as="geometry">
            <Array as="points" />
          </mxGeometry>
        </mxCell>
        <mxCell id="ffsXN4SnScIQA86dBzkv-84" value="" style="curved=1;startArrow=none;endArrow=block;exitX=0.5;exitY=1.01;entryX=0.5;entryY=0;rounded=0;" edge="1" parent="1" source="ffsXN4SnScIQA86dBzkv-38" target="ffsXN4SnScIQA86dBzkv-39">
          <mxGeometry relative="1" as="geometry">
            <Array as="points" />
          </mxGeometry>
        </mxCell>
        <mxCell id="ffsXN4SnScIQA86dBzkv-85" value="" style="curved=1;startArrow=none;endArrow=block;exitX=0.5;exitY=1;entryX=0.5;entryY=0;rounded=0;" edge="1" parent="1" source="ffsXN4SnScIQA86dBzkv-39" target="ffsXN4SnScIQA86dBzkv-40">
          <mxGeometry relative="1" as="geometry">
            <Array as="points" />
          </mxGeometry>
        </mxCell>
        <mxCell id="ffsXN4SnScIQA86dBzkv-86" value="" style="curved=1;startArrow=none;endArrow=block;exitX=0.5;exitY=1;entryX=0.5;entryY=-0.01;rounded=0;" edge="1" parent="1" source="ffsXN4SnScIQA86dBzkv-40" target="ffsXN4SnScIQA86dBzkv-41">
          <mxGeometry relative="1" as="geometry">
            <Array as="points" />
          </mxGeometry>
        </mxCell>
        <mxCell id="ffsXN4SnScIQA86dBzkv-87" value="" style="curved=1;startArrow=none;endArrow=block;exitX=0.5;exitY=0.99;entryX=1;entryY=0.41;rounded=0;" edge="1" parent="1" source="ffsXN4SnScIQA86dBzkv-41" target="ffsXN4SnScIQA86dBzkv-15">
          <mxGeometry relative="1" as="geometry">
            <Array as="points">
              <mxPoint x="2324" y="3189" />
            </Array>
          </mxGeometry>
        </mxCell>
      </root>
    </mxGraphModel>
  </diagram>
</mxfile>
